# xmcd
#
# Track frame offsets: 
#        150
#        12767
#        25469
#        35382
#        47380
#        55841
#        66648
#        81766
#        93662
#        101080
#        111168
#        128601
#        139837
#        150535
#        161842
#        173258
#        185585
#        196526
#        206597
#        220176
#        232280
#        250851
#        261947
#
# Disc length: 3631 seconds
#
# Revision: 0
# Processed by: cddbd v1.5.2PL0 Copyright (c) Steve Scherf et al.
# Submitted via: ExactAudioCopyFreeDBPlugin 1.0
#
DISCID=3f0e2d17
DTITLE=Jerry Reed - Jerry Reed Explores Guitar Country and Cookin'
DYEAR=2018
DGENRE=Country
TTITLE0=Georgia On My Mind
TTITLE1=Sittin' On Top Of The World
TTITLE2=Are You From Dixie (Cause I'm From Dixie Too)
TTITLE3=St. James Infirmary
TTITLE4=Bluegrass (With Guts)
TTITLE5=Blue Moon Of Kentucky
TTITLE6=Wayfaring Stranger
TTITLE7=In The Pines
TTITLE8=Swarmin'
TTITLE9=John Hardy
TTITLE10=Barbara Allen
TTITLE11=A Worried Man
TTITLE12=Turn It Around In Your Mind
TTITLE13=How Many Tomorrows
TTITLE14=Sometimes Feelin'
TTITLE15=Just To Satisfy You
TTITLE16=Plastic Saddle
TTITLE17=I Shoulda Stayed Home
TTITLE18=Alabama Jubilee
TTITLE19=Aunt Maudie's Fun Garden
TTITLE20=The Semi-Great Predictor
TTITLE21=My Next Impersonation
TTITLE22=Gomyeyonyo
EXTD=
EXTT0=
EXTT1=
EXTT2=
EXTT3=
EXTT4=
EXTT5=
EXTT6=
EXTT7=
EXTT8=
EXTT9=
EXTT10=
EXTT11=
EXTT12=
EXTT13=
EXTT14=
EXTT15=
EXTT16=
EXTT17=
EXTT18=
EXTT19=
EXTT20=
EXTT21=
EXTT22=
PLAYORDER=
